<?xml version="1.0" encoding="UTF-8"?><svg id="Layer_2" xmlns="http://www.w3.org/2000/svg" viewBox="0 0 113 137.3"><defs><style>.cls-1{fill:none;stroke:#000;stroke-linecap:round;stroke-linejoin:round;stroke-width:5px;}</style></defs><g id="Layer_2-2"><g><rect class="cls-1" x="2.5" y="2.5" width="108" height="132.3" rx="4" ry="4"/><rect class="cls-1" x="16" y="16" width="81" height="21.6" rx="1" ry="1"/><rect class="cls-1" x="18.7" y="51.1" width="16.2" height="16.2" rx="1" ry="1"/><rect class="cls-1" x="18.7" y="78.1" width="16.2" height="16.2" rx="1" ry="1"/><rect class="cls-1" x="18.7" y="105.1" width="16.2" height="16.2" rx="1" ry="1"/><rect class="cls-1" x="48.4" y="51.1" width="16.2" height="16.2" rx="1" ry="1"/><rect class="cls-1" x="48.4" y="78.1" width="16.2" height="16.2" rx="1" ry="1"/><rect class="cls-1" x="48.4" y="105.1" width="16.2" height="16.2" rx="1" ry="1"/><rect class="cls-1" x="78.1" y="51.1" width="16.2" height="16.2" rx="1" ry="1"/><path class="cls-1" d="M78.1,94.3v-13.5c0-1.49,1.21-2.7,2.7-2.7h10.8c1.49,0,2.7,1.21,2.7,2.7v37.8c0,1.49-1.21,2.7-2.7,2.7h-10.8c-1.49,0-2.7-1.21-2.7-2.7v-24.3Z"/></g></g></svg>