<?xml version="1.0" encoding="UTF-8"?><svg id="Layer_2" xmlns="http://www.w3.org/2000/svg" viewBox="0 0 220 156"><defs><style>.cls-1{fill:#1d1d1b;}</style></defs><g id="Layer_1-2"><g><path class="cls-1" d="M64.54,116.72c5.49-9.14,14.87-15,25.87-15.62,0-.29-.01-.57-.01-.85,0-16.81,10.74-31.18,25.7-37.22-6.5-13.7-20.45-23.02-36.1-23.02-22.05,0-40,17.95-40,40,0,16.4,10.06,30.63,24.54,36.72Z"/><path class="cls-1" d="M80,32c2.21,0,4-1.79,4-4V4c0-2.21-1.79-4-4-4s-4,1.79-4,4V28c0,2.21,1.79,4,4,4Z"/><path class="cls-1" d="M40.38,46.03c1.56,1.56,4.09,1.56,5.66,0s1.56-4.09,0-5.66L29.07,23.41c-1.56-1.56-4.09-1.56-5.66,0s-1.56,4.09,0,5.66l16.96,16.96Z"/><path class="cls-1" d="M32,80c0-2.21-1.79-4-4-4H4c-2.21,0-4,1.79-4,4s1.79,4,4,4H28c2.21,0,4-1.79,4-4Z"/><path class="cls-1" d="M40.38,113.97l-16.96,16.96c-1.56,1.56-1.56,4.09,0,5.66,1.56,1.56,4.09,1.56,5.66,0l16.96-16.96c1.56-1.56,1.56-4.09,0-5.66s-4.09-1.56-5.66,0Z"/><path class="cls-1" d="M119.63,46.03l16.96-16.96c1.56-1.56,1.56-4.09,0-5.66s-4.09-1.56-5.66,0l-16.96,16.96c-1.56,1.56-1.56,4.09,0,5.66,1.56,1.56,4.09,1.56,5.66,0Z"/><path class="cls-1" d="M199.12,127.76c11.97-21.1-17.1-41.32-34.08-24,3.82-26.71-28.95-46.62-53.19-29.32-10.89,7.77-16.41,21.61-11.77,35.88-15.66-5.22-32.08,6.21-32.08,22.24,0,12.9,10.82,23.44,24.32,23.44h112.48c8.36,0,15.2-6.52,15.2-14.64,0-10.63-11.18-17.57-20.88-13.6Z"/></g></g></svg>