<?xml version="1.0" encoding="UTF-8"?><svg id="Layer_2" xmlns="http://www.w3.org/2000/svg" viewBox="0 0 232 152"><defs><style>.cls-1{fill:#1d1d1b;}</style></defs><g id="Layer_1-2"><g><path class="cls-1" d="M161.52,44c0-19.12,12.64-35.44,30.24-41.44-5.6-1.68-11.6-2.56-17.84-2.56-30.01,0-55.06,20.75-60.71,48.24,5.92,6.71,9.82,14.19,11.59,23.08,23.4-8.4,47.53,10.83,44.94,35.64,7.16,1.14,13.56,5.17,17.81,11.56,20.63-4.47,37.33-18.88,44.45-37.81-7.2,4.56-15.76,7.28-25.04,7.28-25.12,0-45.44-19.68-45.44-44Z"/><path class="cls-1" d="M165.6,152c10.16,0,18.4-8.4,18.4-18.64,0-13.27-13.14-22.3-25.28-17.36,9.35-17.2-2.84-38.64-22.56-38.64-7.36,0-14,3.12-18.72,8.16,3.63-20.57-13.92-45.52-40.16-45.52-28.23,0-47.07,28.33-38.4,53.84C20.19,87.27,0,101.4,0,122.16c0,16.48,13.2,29.84,29.44,29.84H165.6Z"/></g></g></svg>