<?xml version="1.0" encoding="utf-8"?>
<!-- Generator: Adobe Illustrator 26.3.1, SVG Export Plug-In . SVG Version: 6.00 Build 0)  -->
<svg version="1.1" id="Layer_2_00000139988199022969706890000009908108427546958759_"
	 xmlns="http://www.w3.org/2000/svg" xmlns:xlink="http://www.w3.org/1999/xlink" x="0px" y="0px" viewBox="0 0 163.6 153.7"
	 style="enable-background:new 0 0 163.6 153.7;" xml:space="preserve">
<style type="text/css">
	.st0{fill:none;stroke:#A09D9D;stroke-width:8;stroke-linecap:round;stroke-linejoin:round;}
</style>
<g id="Layer_1-2">
	<g>
		<g>
			<polyline class="st0" points="67.3,100.2 4,63.5 28.5,49.3 			"/>
			<path class="st0" d="M4,63.5v73.5c0,3.9,3.1,7,7,7h65.5"/>
			<path class="st0" d="M28.5,77.6V7.5C28.5,5.6,30.1,4,32,4h77c1.9,0,3.5,1.6,3.5,3.5V52"/>
			<line class="st0" x1="60" y1="25" x2="81.1" y2="25"/>
			<line class="st0" x1="46" y1="42.5" x2="95.1" y2="42.5"/>
			<line class="st0" x1="46" y1="60" x2="87.1" y2="60"/>
		</g>
		<g>
			<g>
				<line class="st0" x1="103.3" y1="126.3" x2="137.3" y2="90.7"/>
				<line class="st0" x1="137.3" y1="126.3" x2="103.3" y2="90.7"/>
			</g>
			<path class="st0" d="M154.3,87.8c3.4,6.1,5.3,13.2,5.3,20.7c0,22.8-17.6,41.2-39.3,41.2S81,131.3,81,108.5s17.6-41.2,39.3-41.2
				c6.4,0,12.5,1.6,17.9,4.5"/>
		</g>
	</g>
</g>
</svg>
