<?xml version="1.0" encoding="UTF-8"?><svg id="Layer_2" xmlns="http://www.w3.org/2000/svg" viewBox="0 0 179.58 169.6"><defs><style>.cls-1{fill:#1d1d1b;}</style></defs><g id="Layer_1-2"><g><path class="cls-1" d="M167.61,49.88h-17.96V11.97c0-6.61-5.36-11.97-11.97-11.97H41.9c-6.61,0-11.97,5.36-11.97,11.97V49.88H11.97c-6.61,0-11.97,5.36-11.97,11.97v55.87c0,6.61,5.36,11.97,11.97,11.97H29.93v27.93c0,6.61,5.36,11.97,11.97,11.97h95.78c6.61,0,11.97-5.36,11.97-11.97v-27.93h17.96c6.61,0,11.97-5.36,11.97-11.97V61.85c0-6.61-5.36-11.97-11.97-11.97ZM39.91,11.97c0-1.1,.9-2,2-2h95.78c1.1,0,2,.9,2,2V49.88H39.91V11.97Zm99.77,145.66c0,1.1-.9,2-2,2H41.9c-1.1,0-2-.9-2-2v-47.89h99.77v47.89Zm29.93-39.91c0,1.1-.9,2-2,2h-17.96v-19.95H29.93v19.95H11.97c-1.1,0-2-.9-2-2V61.85c0-1.1,.9-2,2-2H167.61c1.1,0,2,.9,2,2v55.87Z"/><circle class="cls-1" cx="154.61" cy="75.48" r="4.99"/><circle class="cls-1" cx="134.65" cy="75.48" r="4.99" transform="translate(-13.94 117.32) rotate(-45)"/><circle class="cls-1" cx="114.7" cy="75.48" r="4.99" transform="translate(-14.23 28.26) rotate(-13.23)"/><rect class="cls-1" x="49.85" y="140.33" width="79.81" height="9.98"/><rect class="cls-1" x="49.85" y="120.38" width="79.81" height="9.98"/></g></g></svg>